<svg xmlns="http://www.w3.org/2000/svg" viewBox="0 0 400 340">
  <defs>
    <linearGradient id="top" x1="0.5" y1="0" x2="0.5" y2="1">
      <stop offset="0%" stop-color="#9B8CFF"/>
      <stop offset="100%" stop-color="#6C5CE7"/>
    </linearGradient>
    <linearGradient id="right" x1="0" y1="0" x2="1" y2="1">
      <stop offset="0%" stop-color="#6C5CE7"/>
      <stop offset="100%" stop-color="#0984E3"/>
    </linearGradient>
    <linearGradient id="left" x1="1" y1="0" x2="0" y2="1">
      <stop offset="0%" stop-color="#5241CC"/>
      <stop offset="100%" stop-color="#0659A8"/>
    </linearGradient>
    <linearGradient id="glow" x1="0.5" y1="0" x2="0.5" y2="1">
      <stop offset="0%" stop-color="#6C5CE7" stop-opacity="0.2"/>
      <stop offset="100%" stop-color="#0984E3" stop-opacity="0"/>
    </linearGradient>
  </defs>
  <ellipse cx="200" cy="150" rx="90" ry="20" fill="url(#glow)"/>
  <polygon points="200,24 250,52 200,80 150,52" fill="url(#top)"/>
  <polygon points="150,52 200,80 200,134 150,106" fill="url(#left)"/>
  <polygon points="250,52 200,80 200,134 250,106" fill="url(#right)"/>
  <line x1="200" y1="80" x2="200" y2="134" stroke="rgba(255,255,255,0.12)" stroke-width="0.6"/>
  <line x1="200" y1="80" x2="150" y2="52" stroke="rgba(255,255,255,0.06)" stroke-width="0.6"/>
  <line x1="200" y1="80" x2="250" y2="52" stroke="rgba(255,255,255,0.06)" stroke-width="0.6"/>
  <text x="200" y="192" text-anchor="middle" font-family="'Space Grotesk','Inter','Segoe UI',sans-serif" font-size="44" font-weight="600" letter-spacing="-1" fill="#E8E8ED">datacube</text>
  <text x="200" y="228" text-anchor="middle" font-family="'Noto Sans SC','Microsoft YaHei','PingFang SC',sans-serif" font-size="20" font-weight="300" letter-spacing="4" fill="#9090A8">数据魔方</text>
  <line x1="140" y1="252" x2="260" y2="252" stroke="#2A2A3C" stroke-width="1"/>
  <text x="200" y="282" text-anchor="middle" font-family="'Noto Sans SC','Microsoft YaHei','PingFang SC',sans-serif" font-size="14" font-weight="300" letter-spacing="3" fill="#505068">每一面，皆是数据新维度</text>
</svg>